<?xml version="1.0" standalone="no"?>
<svg xmlns:xlink="http://www.w3.org/1999/xlink" version="1.1" xmlns="http://www.w3.org/2000/svg" id="QRCodeGenerate" class="img-fluid mw-75" data-copyright="my-qrcode.net" data-modulecount="29" data-defaultsize="310" data-defaultclass="img-fluid mw-75" data-text="https://wa.me/79882400690" data-color="rgb(0, 0, 0)" data-backcolor="none" data-typeicon="square" data-framesize="none" data-framewidth="0" data-titlelocation="none" data-titlefont="sans-serif" data-titletext="" data-typenumber="0" data-errorcorrectionlevel="Q" data-mode="Byte" data-mb="UTF-8" width="310px" height="310px" x="0px" y="0px" viewBox="0 0 310 310" preserveAspectRatio="xMinYMin meet"><rect width="100%" height="100%" fill="none" x="0" y="0"/><path d="M10,10l10,0 0,10 -10,0 0,-10z M20,10l10,0 0,10 -10,0 0,-10z M30,10l10,0 0,10 -10,0 0,-10z M40,10l10,0 0,10 -10,0 0,-10z M50,10l10,0 0,10 -10,0 0,-10z M60,10l10,0 0,10 -10,0 0,-10z M70,10l10,0 0,10 -10,0 0,-10z M100,10l10,0 0,10 -10,0 0,-10z M120,10l10,0 0,10 -10,0 0,-10z M130,10l10,0 0,10 -10,0 0,-10z M160,10l10,0 0,10 -10,0 0,-10z M200,10l10,0 0,10 -10,0 0,-10z M210,10l10,0 0,10 -10,0 0,-10z M230,10l10,0 0,10 -10,0 0,-10z M240,10l10,0 0,10 -10,0 0,-10z M250,10l10,0 0,10 -10,0 0,-10z M260,10l10,0 0,10 -10,0 0,-10z M270,10l10,0 0,10 -10,0 0,-10z M280,10l10,0 0,10 -10,0 0,-10z M290,10l10,0 0,10 -10,0 0,-10z M10,20l10,0 0,10 -10,0 0,-10z M70,20l10,0 0,10 -10,0 0,-10z M90,20l10,0 0,10 -10,0 0,-10z M100,20l10,0 0,10 -10,0 0,-10z M110,20l10,0 0,10 -10,0 0,-10z M120,20l10,0 0,10 -10,0 0,-10z M130,20l10,0 0,10 -10,0 0,-10z M150,20l10,0 0,10 -10,0 0,-10z M160,20l10,0 0,10 -10,0 0,-10z M170,20l10,0 0,10 -10,0 0,-10z M180,20l10,0 0,10 -10,0 0,-10z M200,20l10,0 0,10 -10,0 0,-10z M230,20l10,0 0,10 -10,0 0,-10z M290,20l10,0 0,10 -10,0 0,-10z M10,30l10,0 0,10 -10,0 0,-10z M30,30l10,0 0,10 -10,0 0,-10z M40,30l10,0 0,10 -10,0 0,-10z M50,30l10,0 0,10 -10,0 0,-10z M70,30l10,0 0,10 -10,0 0,-10z M100,30l10,0 0,10 -10,0 0,-10z M120,30l10,0 0,10 -10,0 0,-10z M150,30l10,0 0,10 -10,0 0,-10z M160,30l10,0 0,10 -10,0 0,-10z M190,30l10,0 0,10 -10,0 0,-10z M200,30l10,0 0,10 -10,0 0,-10z M230,30l10,0 0,10 -10,0 0,-10z M250,30l10,0 0,10 -10,0 0,-10z M260,30l10,0 0,10 -10,0 0,-10z M270,30l10,0 0,10 -10,0 0,-10z M290,30l10,0 0,10 -10,0 0,-10z M10,40l10,0 0,10 -10,0 0,-10z M30,40l10,0 0,10 -10,0 0,-10z M40,40l10,0 0,10 -10,0 0,-10z M50,40l10,0 0,10 -10,0 0,-10z M70,40l10,0 0,10 -10,0 0,-10z M90,40l10,0 0,10 -10,0 0,-10z M100,40l10,0 0,10 -10,0 0,-10z M110,40l10,0 0,10 -10,0 0,-10z M130,40l10,0 0,10 -10,0 0,-10z M150,40l10,0 0,10 -10,0 0,-10z M170,40l10,0 0,10 -10,0 0,-10z M180,40l10,0 0,10 -10,0 0,-10z M210,40l10,0 0,10 -10,0 0,-10z M230,40l10,0 0,10 -10,0 0,-10z M250,40l10,0 0,10 -10,0 0,-10z M260,40l10,0 0,10 -10,0 0,-10z M270,40l10,0 0,10 -10,0 0,-10z M290,40l10,0 0,10 -10,0 0,-10z M10,50l10,0 0,10 -10,0 0,-10z M30,50l10,0 0,10 -10,0 0,-10z M40,50l10,0 0,10 -10,0 0,-10z M50,50l10,0 0,10 -10,0 0,-10z M70,50l10,0 0,10 -10,0 0,-10z M90,50l10,0 0,10 -10,0 0,-10z M120,50l10,0 0,10 -10,0 0,-10z M150,50l10,0 0,10 -10,0 0,-10z M170,50l10,0 0,10 -10,0 0,-10z M190,50l10,0 0,10 -10,0 0,-10z M200,50l10,0 0,10 -10,0 0,-10z M210,50l10,0 0,10 -10,0 0,-10z M230,50l10,0 0,10 -10,0 0,-10z M250,50l10,0 0,10 -10,0 0,-10z M260,50l10,0 0,10 -10,0 0,-10z M270,50l10,0 0,10 -10,0 0,-10z M290,50l10,0 0,10 -10,0 0,-10z M10,60l10,0 0,10 -10,0 0,-10z M70,60l10,0 0,10 -10,0 0,-10z M130,60l10,0 0,10 -10,0 0,-10z M160,60l10,0 0,10 -10,0 0,-10z M210,60l10,0 0,10 -10,0 0,-10z M230,60l10,0 0,10 -10,0 0,-10z M290,60l10,0 0,10 -10,0 0,-10z M10,70l10,0 0,10 -10,0 0,-10z M20,70l10,0 0,10 -10,0 0,-10z M30,70l10,0 0,10 -10,0 0,-10z M40,70l10,0 0,10 -10,0 0,-10z M50,70l10,0 0,10 -10,0 0,-10z M60,70l10,0 0,10 -10,0 0,-10z M70,70l10,0 0,10 -10,0 0,-10z M90,70l10,0 0,10 -10,0 0,-10z M110,70l10,0 0,10 -10,0 0,-10z M130,70l10,0 0,10 -10,0 0,-10z M150,70l10,0 0,10 -10,0 0,-10z M170,70l10,0 0,10 -10,0 0,-10z M190,70l10,0 0,10 -10,0 0,-10z M210,70l10,0 0,10 -10,0 0,-10z M230,70l10,0 0,10 -10,0 0,-10z M240,70l10,0 0,10 -10,0 0,-10z M250,70l10,0 0,10 -10,0 0,-10z M260,70l10,0 0,10 -10,0 0,-10z M270,70l10,0 0,10 -10,0 0,-10z M280,70l10,0 0,10 -10,0 0,-10z M290,70l10,0 0,10 -10,0 0,-10z M90,80l10,0 0,10 -10,0 0,-10z M100,80l10,0 0,10 -10,0 0,-10z M120,80l10,0 0,10 -10,0 0,-10z M130,80l10,0 0,10 -10,0 0,-10z M160,80l10,0 0,10 -10,0 0,-10z M180,80l10,0 0,10 -10,0 0,-10z M190,80l10,0 0,10 -10,0 0,-10z M200,80l10,0 0,10 -10,0 0,-10z M210,80l10,0 0,10 -10,0 0,-10z M20,90l10,0 0,10 -10,0 0,-10z M40,90l10,0 0,10 -10,0 0,-10z M50,90l10,0 0,10 -10,0 0,-10z M60,90l10,0 0,10 -10,0 0,-10z M70,90l10,0 0,10 -10,0 0,-10z M90,90l10,0 0,10 -10,0 0,-10z M100,90l10,0 0,10 -10,0 0,-10z M140,90l10,0 0,10 -10,0 0,-10z M150,90l10,0 0,10 -10,0 0,-10z M160,90l10,0 0,10 -10,0 0,-10z M170,90l10,0 0,10 -10,0 0,-10z M200,90l10,0 0,10 -10,0 0,-10z M220,90l10,0 0,10 -10,0 0,-10z M230,90l10,0 0,10 -10,0 0,-10z M250,90l10,0 0,10 -10,0 0,-10z M260,90l10,0 0,10 -10,0 0,-10z M280,90l10,0 0,10 -10,0 0,-10z M20,100l10,0 0,10 -10,0 0,-10z M30,100l10,0 0,10 -10,0 0,-10z M40,100l10,0 0,10 -10,0 0,-10z M80,100l10,0 0,10 -10,0 0,-10z M140,100l10,0 0,10 -10,0 0,-10z M180,100l10,0 0,10 -10,0 0,-10z M190,100l10,0 0,10 -10,0 0,-10z M220,100l10,0 0,10 -10,0 0,-10z M250,100l10,0 0,10 -10,0 0,-10z M280,100l10,0 0,10 -10,0 0,-10z M10,110l10,0 0,10 -10,0 0,-10z M30,110l10,0 0,10 -10,0 0,-10z M70,110l10,0 0,10 -10,0 0,-10z M90,110l10,0 0,10 -10,0 0,-10z M120,110l10,0 0,10 -10,0 0,-10z M140,110l10,0 0,10 -10,0 0,-10z M150,110l10,0 0,10 -10,0 0,-10z M160,110l10,0 0,10 -10,0 0,-10z M180,110l10,0 0,10 -10,0 0,-10z M200,110l10,0 0,10 -10,0 0,-10z M210,110l10,0 0,10 -10,0 0,-10z M220,110l10,0 0,10 -10,0 0,-10z M230,110l10,0 0,10 -10,0 0,-10z M240,110l10,0 0,10 -10,0 0,-10z M250,110l10,0 0,10 -10,0 0,-10z M270,110l10,0 0,10 -10,0 0,-10z M10,120l10,0 0,10 -10,0 0,-10z M20,120l10,0 0,10 -10,0 0,-10z M30,120l10,0 0,10 -10,0 0,-10z M60,120l10,0 0,10 -10,0 0,-10z M80,120l10,0 0,10 -10,0 0,-10z M110,120l10,0 0,10 -10,0 0,-10z M200,120l10,0 0,10 -10,0 0,-10z M210,120l10,0 0,10 -10,0 0,-10z M240,120l10,0 0,10 -10,0 0,-10z M250,120l10,0 0,10 -10,0 0,-10z M290,120l10,0 0,10 -10,0 0,-10z M10,130l10,0 0,10 -10,0 0,-10z M40,130l10,0 0,10 -10,0 0,-10z M60,130l10,0 0,10 -10,0 0,-10z M70,130l10,0 0,10 -10,0 0,-10z M90,130l10,0 0,10 -10,0 0,-10z M110,130l10,0 0,10 -10,0 0,-10z M210,130l10,0 0,10 -10,0 0,-10z M220,130l10,0 0,10 -10,0 0,-10z M230,130l10,0 0,10 -10,0 0,-10z M280,130l10,0 0,10 -10,0 0,-10z M10,140l10,0 0,10 -10,0 0,-10z M60,140l10,0 0,10 -10,0 0,-10z M80,140l10,0 0,10 -10,0 0,-10z M110,140l10,0 0,10 -10,0 0,-10z M190,140l10,0 0,10 -10,0 0,-10z M230,140l10,0 0,10 -10,0 0,-10z M250,140l10,0 0,10 -10,0 0,-10z M270,140l10,0 0,10 -10,0 0,-10z M280,140l10,0 0,10 -10,0 0,-10z M290,140l10,0 0,10 -10,0 0,-10z M20,150l10,0 0,10 -10,0 0,-10z M30,150l10,0 0,10 -10,0 0,-10z M50,150l10,0 0,10 -10,0 0,-10z M60,150l10,0 0,10 -10,0 0,-10z M70,150l10,0 0,10 -10,0 0,-10z M90,150l10,0 0,10 -10,0 0,-10z M100,150l10,0 0,10 -10,0 0,-10z M110,150l10,0 0,10 -10,0 0,-10z M190,150l10,0 0,10 -10,0 0,-10z M200,150l10,0 0,10 -10,0 0,-10z M210,150l10,0 0,10 -10,0 0,-10z M230,150l10,0 0,10 -10,0 0,-10z M240,150l10,0 0,10 -10,0 0,-10z M260,150l10,0 0,10 -10,0 0,-10z M280,150l10,0 0,10 -10,0 0,-10z M290,150l10,0 0,10 -10,0 0,-10z M20,160l10,0 0,10 -10,0 0,-10z M40,160l10,0 0,10 -10,0 0,-10z M50,160l10,0 0,10 -10,0 0,-10z M200,160l10,0 0,10 -10,0 0,-10z M250,160l10,0 0,10 -10,0 0,-10z M260,160l10,0 0,10 -10,0 0,-10z M270,160l10,0 0,10 -10,0 0,-10z M290,160l10,0 0,10 -10,0 0,-10z M10,170l10,0 0,10 -10,0 0,-10z M30,170l10,0 0,10 -10,0 0,-10z M70,170l10,0 0,10 -10,0 0,-10z M190,170l10,0 0,10 -10,0 0,-10z M210,170l10,0 0,10 -10,0 0,-10z M220,170l10,0 0,10 -10,0 0,-10z M260,170l10,0 0,10 -10,0 0,-10z M280,170l10,0 0,10 -10,0 0,-10z M290,170l10,0 0,10 -10,0 0,-10z M10,180l10,0 0,10 -10,0 0,-10z M20,180l10,0 0,10 -10,0 0,-10z M80,180l10,0 0,10 -10,0 0,-10z M100,180l10,0 0,10 -10,0 0,-10z M110,180l10,0 0,10 -10,0 0,-10z M220,180l10,0 0,10 -10,0 0,-10z M240,180l10,0 0,10 -10,0 0,-10z M250,180l10,0 0,10 -10,0 0,-10z M10,190l10,0 0,10 -10,0 0,-10z M20,190l10,0 0,10 -10,0 0,-10z M50,190l10,0 0,10 -10,0 0,-10z M60,190l10,0 0,10 -10,0 0,-10z M70,190l10,0 0,10 -10,0 0,-10z M90,190l10,0 0,10 -10,0 0,-10z M140,190l10,0 0,10 -10,0 0,-10z M170,190l10,0 0,10 -10,0 0,-10z M180,190l10,0 0,10 -10,0 0,-10z M200,190l10,0 0,10 -10,0 0,-10z M210,190l10,0 0,10 -10,0 0,-10z M240,190l10,0 0,10 -10,0 0,-10z M250,190l10,0 0,10 -10,0 0,-10z M260,190l10,0 0,10 -10,0 0,-10z M290,190l10,0 0,10 -10,0 0,-10z M10,200l10,0 0,10 -10,0 0,-10z M20,200l10,0 0,10 -10,0 0,-10z M80,200l10,0 0,10 -10,0 0,-10z M100,200l10,0 0,10 -10,0 0,-10z M120,200l10,0 0,10 -10,0 0,-10z M140,200l10,0 0,10 -10,0 0,-10z M150,200l10,0 0,10 -10,0 0,-10z M160,200l10,0 0,10 -10,0 0,-10z M170,200l10,0 0,10 -10,0 0,-10z M200,200l10,0 0,10 -10,0 0,-10z M210,200l10,0 0,10 -10,0 0,-10z M220,200l10,0 0,10 -10,0 0,-10z M230,200l10,0 0,10 -10,0 0,-10z M250,200l10,0 0,10 -10,0 0,-10z M260,200l10,0 0,10 -10,0 0,-10z M270,200l10,0 0,10 -10,0 0,-10z M280,200l10,0 0,10 -10,0 0,-10z M10,210l10,0 0,10 -10,0 0,-10z M20,210l10,0 0,10 -10,0 0,-10z M60,210l10,0 0,10 -10,0 0,-10z M70,210l10,0 0,10 -10,0 0,-10z M80,210l10,0 0,10 -10,0 0,-10z M90,210l10,0 0,10 -10,0 0,-10z M130,210l10,0 0,10 -10,0 0,-10z M140,210l10,0 0,10 -10,0 0,-10z M150,210l10,0 0,10 -10,0 0,-10z M180,210l10,0 0,10 -10,0 0,-10z M190,210l10,0 0,10 -10,0 0,-10z M200,210l10,0 0,10 -10,0 0,-10z M210,210l10,0 0,10 -10,0 0,-10z M220,210l10,0 0,10 -10,0 0,-10z M230,210l10,0 0,10 -10,0 0,-10z M240,210l10,0 0,10 -10,0 0,-10z M250,210l10,0 0,10 -10,0 0,-10z M270,210l10,0 0,10 -10,0 0,-10z M280,210l10,0 0,10 -10,0 0,-10z M90,220l10,0 0,10 -10,0 0,-10z M100,220l10,0 0,10 -10,0 0,-10z M110,220l10,0 0,10 -10,0 0,-10z M150,220l10,0 0,10 -10,0 0,-10z M160,220l10,0 0,10 -10,0 0,-10z M170,220l10,0 0,10 -10,0 0,-10z M180,220l10,0 0,10 -10,0 0,-10z M190,220l10,0 0,10 -10,0 0,-10z M200,220l10,0 0,10 -10,0 0,-10z M210,220l10,0 0,10 -10,0 0,-10z M250,220l10,0 0,10 -10,0 0,-10z M260,220l10,0 0,10 -10,0 0,-10z M270,220l10,0 0,10 -10,0 0,-10z M280,220l10,0 0,10 -10,0 0,-10z M10,230l10,0 0,10 -10,0 0,-10z M20,230l10,0 0,10 -10,0 0,-10z M30,230l10,0 0,10 -10,0 0,-10z M40,230l10,0 0,10 -10,0 0,-10z M50,230l10,0 0,10 -10,0 0,-10z M60,230l10,0 0,10 -10,0 0,-10z M70,230l10,0 0,10 -10,0 0,-10z M110,230l10,0 0,10 -10,0 0,-10z M160,230l10,0 0,10 -10,0 0,-10z M170,230l10,0 0,10 -10,0 0,-10z M200,230l10,0 0,10 -10,0 0,-10z M210,230l10,0 0,10 -10,0 0,-10z M230,230l10,0 0,10 -10,0 0,-10z M250,230l10,0 0,10 -10,0 0,-10z M270,230l10,0 0,10 -10,0 0,-10z M280,230l10,0 0,10 -10,0 0,-10z M10,240l10,0 0,10 -10,0 0,-10z M70,240l10,0 0,10 -10,0 0,-10z M90,240l10,0 0,10 -10,0 0,-10z M100,240l10,0 0,10 -10,0 0,-10z M130,240l10,0 0,10 -10,0 0,-10z M150,240l10,0 0,10 -10,0 0,-10z M160,240l10,0 0,10 -10,0 0,-10z M190,240l10,0 0,10 -10,0 0,-10z M200,240l10,0 0,10 -10,0 0,-10z M210,240l10,0 0,10 -10,0 0,-10z M250,240l10,0 0,10 -10,0 0,-10z M260,240l10,0 0,10 -10,0 0,-10z M280,240l10,0 0,10 -10,0 0,-10z M290,240l10,0 0,10 -10,0 0,-10z M10,250l10,0 0,10 -10,0 0,-10z M30,250l10,0 0,10 -10,0 0,-10z M40,250l10,0 0,10 -10,0 0,-10z M50,250l10,0 0,10 -10,0 0,-10z M70,250l10,0 0,10 -10,0 0,-10z M90,250l10,0 0,10 -10,0 0,-10z M110,250l10,0 0,10 -10,0 0,-10z M120,250l10,0 0,10 -10,0 0,-10z M130,250l10,0 0,10 -10,0 0,-10z M160,250l10,0 0,10 -10,0 0,-10z M180,250l10,0 0,10 -10,0 0,-10z M200,250l10,0 0,10 -10,0 0,-10z M210,250l10,0 0,10 -10,0 0,-10z M220,250l10,0 0,10 -10,0 0,-10z M230,250l10,0 0,10 -10,0 0,-10z M240,250l10,0 0,10 -10,0 0,-10z M250,250l10,0 0,10 -10,0 0,-10z M280,250l10,0 0,10 -10,0 0,-10z M10,260l10,0 0,10 -10,0 0,-10z M30,260l10,0 0,10 -10,0 0,-10z M40,260l10,0 0,10 -10,0 0,-10z M50,260l10,0 0,10 -10,0 0,-10z M70,260l10,0 0,10 -10,0 0,-10z M90,260l10,0 0,10 -10,0 0,-10z M140,260l10,0 0,10 -10,0 0,-10z M150,260l10,0 0,10 -10,0 0,-10z M180,260l10,0 0,10 -10,0 0,-10z M190,260l10,0 0,10 -10,0 0,-10z M240,260l10,0 0,10 -10,0 0,-10z M270,260l10,0 0,10 -10,0 0,-10z M280,260l10,0 0,10 -10,0 0,-10z M10,270l10,0 0,10 -10,0 0,-10z M30,270l10,0 0,10 -10,0 0,-10z M40,270l10,0 0,10 -10,0 0,-10z M50,270l10,0 0,10 -10,0 0,-10z M70,270l10,0 0,10 -10,0 0,-10z M100,270l10,0 0,10 -10,0 0,-10z M110,270l10,0 0,10 -10,0 0,-10z M130,270l10,0 0,10 -10,0 0,-10z M160,270l10,0 0,10 -10,0 0,-10z M180,270l10,0 0,10 -10,0 0,-10z M210,270l10,0 0,10 -10,0 0,-10z M220,270l10,0 0,10 -10,0 0,-10z M240,270l10,0 0,10 -10,0 0,-10z M250,270l10,0 0,10 -10,0 0,-10z M260,270l10,0 0,10 -10,0 0,-10z M280,270l10,0 0,10 -10,0 0,-10z M290,270l10,0 0,10 -10,0 0,-10z M10,280l10,0 0,10 -10,0 0,-10z M70,280l10,0 0,10 -10,0 0,-10z M90,280l10,0 0,10 -10,0 0,-10z M110,280l10,0 0,10 -10,0 0,-10z M130,280l10,0 0,10 -10,0 0,-10z M140,280l10,0 0,10 -10,0 0,-10z M170,280l10,0 0,10 -10,0 0,-10z M200,280l10,0 0,10 -10,0 0,-10z M250,280l10,0 0,10 -10,0 0,-10z M270,280l10,0 0,10 -10,0 0,-10z M290,280l10,0 0,10 -10,0 0,-10z M10,290l10,0 0,10 -10,0 0,-10z M20,290l10,0 0,10 -10,0 0,-10z M30,290l10,0 0,10 -10,0 0,-10z M40,290l10,0 0,10 -10,0 0,-10z M50,290l10,0 0,10 -10,0 0,-10z M60,290l10,0 0,10 -10,0 0,-10z M70,290l10,0 0,10 -10,0 0,-10z M120,290l10,0 0,10 -10,0 0,-10z M150,290l10,0 0,10 -10,0 0,-10z M160,290l10,0 0,10 -10,0 0,-10z M170,290l10,0 0,10 -10,0 0,-10z M190,290l10,0 0,10 -10,0 0,-10z M210,290l10,0 0,10 -10,0 0,-10z M240,290l10,0 0,10 -10,0 0,-10z M250,290l10,0 0,10 -10,0 0,-10z M260,290l10,0 0,10 -10,0 0,-10z " stroke="transparent" fill="rgb(0, 0, 0)"/><svg version="1.1" xmlns="http://www.w3.org/2000/svg" name="icon" width="60px" height="60px" x="125px" y="125px" viewBox="0 0 500 502" preserveAspectRatio="xMinYMin meet"><path d="M179 84c29.5-13.4 62.8-18 95-13.7 32.7 4.3 64 18.3 89 39.8 24 20.2 42.3 47 52.4 76.6 11.6 33.7 12.5 71 2.6 105a176 176 0 0 1-66.3 93.7 175 175 0 0 1-68.6 29.5c-42 8-86.6.2-123-22-2.3-1-4.5-3.5-7.2-2.4L89 407l17-62.4c1-2.2-1-4-2-6-19.3-29.4-29.3-64.8-28.3-100 1-72 47-129 103-155" fill="#40c351"/><path d="M188 146c4.7.1 7.8 4.3 9.6 8 6 13 10.8 26.4 16.5 39.5 1.2 2.7 2 5.7 1 8.6-3 8.5-10 14.6-15.6 21.4-2 2.3-1.8 5.6-.2 8a130 130 0 0 0 73.5 63.5c3 1.3 6.6 1 8.7-1.6a282 282 0 0 0 17-20.9c4.6-6 8.6-4.3 14.6-1.8l38.4 18.5c3 1.3 6 3.5 5.7 7 2 26-21.3 46.2-45.7 47-63-4.6-106-39.6-137-80-10.2-14.2-21-28.5-26.6-45.4-5.3-14.8-5.5-31.7.8-46.3 9.7-19.5 18.2-27 39.6-25.8zm-59-74.6c46.2-33 106-45.6 162-34.4a209 209 0 0 1 97.7 48.3 210 210 0 0 1 70.2 134 211 211 0 0 1-13 101c-14.8 38-41 71.4-74.2 95a209 209 0 0 1-109 38.5 210 210 0 0 1-113-25l-112 29 29.5-108c.6-1.3-.3-2.4-1-3.4a210 210 0 0 1-25-130 213 213 0 0 1 87.5-145M178.4 84c-33.5 15-62 40.8-80.2 72.7-14.4 25-22.4 53.5-23 82.3-1 35.2 9 70.5 28.3 100 1 1.8 2.8 3.7 2 6l-17 62.4c21.3-5.4 42.6-11.2 64-16.6 2.7-1 5 1.2 7.2 2.4a175 175 0 0 0 123 22.1 173 173 0 0 0 68.6-29.5 176 176 0 0 0 66.3-93.7 175 175 0 0 0-2.6-105 175 175 0 0 0-52.4-76.6 174 174 0 0 0-89.1-39.8c-32-4.3-65.4.3-95 13.7z" fill="#fcfcfc"/></svg></svg>